<svg xmlns="http://www.w3.org/2000/svg" width="901.75" height="273.4" viewBox="0 0 901.75 273.4">
  <g id="Group_217" data-name="Group 217" transform="translate(1079.773 -450.6)">
    <g id="Layer_2" data-name="Layer 2" transform="translate(-521.999 450.61)">
      <g id="Layer_2-2" data-name="Layer 2">
        <path id="Path_57" data-name="Path 57" d="M339.9,171.8s68.68-102.41-37.35-147H70l47.57,148.41Z" transform="translate(-20.31 -22.31)" fill="#fff" stroke="#231f20" stroke-miterlimit="10" stroke-width="5"/>
        <line id="Line_22" data-name="Line 22" x1="37.35" y1="146.99" transform="translate(282.24 2.5)" fill="none" stroke="#231f20" stroke-miterlimit="10" stroke-width="5"/>
        <g id="Layer_3" data-name="Layer 3">
          <path id="Path_58" data-name="Path 58" d="M98.52,67.07l-17,21q-13-12.84-23.9-11a13.19,13.19,0,0,0-8.2,4.32,8.447,8.447,0,0,0-2.28,7,11.12,11.12,0,0,0,3.56,6.32q4,3.69,22.88,14.82,17.63,10.26,21.49,13.07,9.6,6.89,14.32,13.85a40.21,40.21,0,0,1,6.25,15.92q3,17.43-7.13,30.84T79.08,200q-15.14,2.6-27.63-2.91t-23.2-20l20.32-17.54Q62,176.55,75.3,174.3a17.59,17.59,0,0,0,11-6q4-4.86,3.13-10.15a16.31,16.31,0,0,0-5.21-9Q79.8,144.87,66,137q-26.4-14.88-34.92-24T20.84,93.72Q18.32,79,27.75,66.53T53.66,51.26a44.34,44.34,0,0,1,21,1.46Q85.12,56,98.52,67.07Z" transform="translate(-20.31 -22.31)" fill="#d03d47"/>
          <path id="Path_59" data-name="Path 59" d="M81.76,28.15h79.4v27H135V171.8H107.25V55.1H81.76Z" transform="translate(-20.31 -22.31)" fill="#231f20"/>
          <path id="Path_60" data-name="Path 60" d="M157.61,82.15H176l36.71,95.46H193.87L186.4,158h-39l-7.76,19.66H120.8Zm9.33,25.31-12.81,32.77h25.54Z" transform="translate(-20.31 -22.31)" fill="#d03d47"/>
          <path id="Path_61" data-name="Path 61" d="M261.36,39.2l25.19,3.94-7.69,49.23,43.55,6.8,7.69-49.23,25.11,3.93L334.82,184.35l-25.11-3.92,8.94-57.22-43.55-6.8-8.94,57.21L241,169.68Z" transform="translate(-20.31 -22.31)" fill="#d03d47"/>
          <path id="Path_62" data-name="Path 62" d="M265.51,65.81l-19.23,19q-11.47-14.23-22.51-13.62a13.18,13.18,0,0,0-8.63,3.37,8.4,8.4,0,0,0-3.06,6.67,11.06,11.06,0,0,0,2.82,6.69q3.56,4.11,21,17.32,16.35,12.2,19.86,15.42,8.76,7.94,12.66,15.39a40.3,40.3,0,0,1,4.4,16.53q1,17.65-10.59,29.83T231.1,195.65q-15.33.85-27.11-6T183.2,167.11L205.38,152q11.42,18.45,24.89,17.69a17.57,17.57,0,0,0,11.59-4.75c3-2.9,4.45-6.15,4.26-9.72a16.36,16.36,0,0,0-4.16-9.55q-3.89-4.68-16.75-14-24.5-17.81-31.91-27.81t-8-20.34q-.83-14.93,9.95-26.23T222.74,45a44.26,44.26,0,0,1,20.72,3.84Q253.45,53.27,265.51,65.81Z" transform="translate(-20.31 -22.31)" fill="#231f20"/>
        </g>
        <path id="Path_63" data-name="Path 63" d="M9.12,149.49H319.96l-6.02,120.9H16.34Z" fill="#fff" stroke="#231f20" stroke-miterlimit="10" stroke-width="5"/>
        <line id="Line_23" data-name="Line 23" x1="4.82" y2="120.9" transform="translate(242.85 149.49)" fill="none" stroke="#231f20" stroke-miterlimit="10" stroke-width="5"/>
      </g>
    </g>
    <path id="Path_67" data-name="Path 67" d="M56.737-268.63h49.82L168.83-81.265,231.667-268.63h49.789L326.52,0H277.073l-28.8-169.651L191.2,0H146.137L89.574-169.651,60.081,0H10.227Zm310.872,0h51.681v92.61l72.924-92.61h61.4L459.8-148.742,562.735,0H502.1L419.289-119.355V0H367.608Z" transform="translate(-1090 724)" fill="#1a1818"/>
  </g>
</svg>
